<svg width="391.36" height="45.188" viewBox="0 0 391.36 45.188" xmlns="http://www.w3.org/2000/svg"><g id="svgGroup" stroke-linecap="round" fill-rule="evenodd" font-size="9pt" stroke="#ffffff" stroke-width="0.25mm" fill="#ffffff" style="stroke:#ffffff;stroke-width:0.25mm;fill:#ffffff"><path d="M 228.75 21.703 L 228.75 22.313 L 207.75 22.313 L 207.75 21.235 L 228.164 21.235 L 227.696 21.703 Q 227.696 18.422 226.442 15.738 Q 225.188 13.055 223.02 11.473 Q 220.852 9.891 218.063 9.891 Q 215.367 9.891 213.141 11.496 Q 210.914 13.102 209.59 15.856 Q 208.266 18.61 208.266 22.078 L 208.266 22.219 Q 208.266 25.664 209.473 28.535 Q 210.68 31.406 212.989 33.141 Q 215.297 34.875 218.578 34.875 Q 221.016 34.875 222.657 34.02 Q 224.297 33.164 225.305 32.039 Q 226.313 30.914 226.782 30.141 L 227.672 30.75 Q 227.086 31.735 225.926 32.953 Q 224.766 34.172 222.95 35.063 Q 221.133 35.953 218.578 35.953 Q 215.157 35.953 212.59 34.16 Q 210.024 32.367 208.606 29.285 Q 207.188 26.203 207.188 22.36 Q 207.188 18.516 208.617 15.445 Q 210.047 12.375 212.508 10.594 Q 214.969 8.813 218.063 8.813 Q 220.36 8.813 222.305 9.785 Q 224.25 10.758 225.703 12.504 Q 227.157 14.25 227.953 16.594 Q 228.75 18.938 228.75 21.703 Z M 367.969 21.703 L 367.969 22.313 L 346.969 22.313 L 346.969 21.235 L 367.383 21.235 L 366.914 21.703 Q 366.914 18.422 365.66 15.738 Q 364.407 13.055 362.239 11.473 Q 360.071 9.891 357.282 9.891 Q 354.586 9.891 352.36 11.496 Q 350.133 13.102 348.809 15.856 Q 347.485 18.61 347.485 22.078 L 347.485 22.219 Q 347.485 25.664 348.692 28.535 Q 349.899 31.406 352.207 33.141 Q 354.516 34.875 357.797 34.875 Q 360.235 34.875 361.875 34.02 Q 363.516 33.164 364.524 32.039 Q 365.532 30.914 366 30.141 L 366.891 30.75 Q 366.305 31.735 365.145 32.953 Q 363.985 34.172 362.168 35.063 Q 360.352 35.953 357.797 35.953 Q 354.375 35.953 351.809 34.16 Q 349.242 32.367 347.825 29.285 Q 346.407 26.203 346.407 22.36 Q 346.407 18.516 347.836 15.445 Q 349.266 12.375 351.727 10.594 Q 354.188 8.813 357.282 8.813 Q 359.578 8.813 361.524 9.785 Q 363.469 10.758 364.922 12.504 Q 366.375 14.25 367.172 16.594 Q 367.969 18.938 367.969 21.703 Z M 27.844 11.391 L 26.742 11.391 Q 26.391 9.586 25.453 7.77 Q 24.516 5.953 22.981 4.442 Q 21.446 2.93 19.325 2.004 Q 17.203 1.078 14.485 1.078 Q 10.899 1.078 7.852 3.035 Q 4.805 4.992 2.942 8.754 Q 1.078 12.516 1.078 17.953 Q 1.078 23.438 2.942 27.188 Q 4.805 30.938 7.852 32.86 Q 10.899 34.781 14.485 34.781 Q 17.203 34.781 19.325 33.856 Q 21.446 32.93 22.969 31.406 Q 24.492 29.883 25.442 28.067 Q 26.391 26.25 26.742 24.469 L 27.844 24.469 Q 27.516 26.32 26.543 28.313 Q 25.571 30.305 23.918 32.016 Q 22.266 33.727 19.91 34.793 Q 17.555 35.86 14.485 35.86 Q 10.196 35.86 6.926 33.61 Q 3.657 31.36 1.828 27.328 Q 0 23.297 0 17.953 Q 0 12.586 1.828 8.555 Q 3.657 4.524 6.926 2.262 Q 10.196 0 14.485 0 Q 17.555 0 19.91 1.055 Q 22.266 2.11 23.918 3.82 Q 25.571 5.531 26.543 7.524 Q 27.516 9.516 27.844 11.391 Z M 36.938 17.813 L 36.938 35.391 L 35.86 35.391 L 35.86 0.469 L 36.938 0.469 L 36.938 14.813 L 36.657 14.813 Q 37.5 11.813 39.996 10.313 Q 42.492 8.813 45.469 8.813 Q 48.164 8.813 50.215 9.949 Q 52.266 11.086 53.438 13.102 Q 54.61 15.117 54.61 17.813 L 54.61 35.391 L 53.532 35.391 L 53.532 17.813 Q 53.532 14.25 51.282 12.07 Q 49.032 9.891 45.469 9.891 Q 43.032 9.891 41.098 10.91 Q 39.164 11.93 38.051 13.723 Q 36.938 15.516 36.938 17.813 Z M 181.828 17.813 L 181.828 35.391 L 180.75 35.391 L 180.75 0.469 L 181.828 0.469 L 181.828 14.813 L 181.547 14.813 Q 182.391 11.813 184.887 10.313 Q 187.383 8.813 190.36 8.813 Q 193.055 8.813 195.106 9.949 Q 197.157 11.086 198.328 13.102 Q 199.5 15.117 199.5 17.813 L 199.5 35.391 L 198.422 35.391 L 198.422 17.813 Q 198.422 14.25 196.172 12.07 Q 193.922 9.891 190.36 9.891 Q 187.922 9.891 185.989 10.91 Q 184.055 11.93 182.942 13.723 Q 181.828 15.516 181.828 17.813 Z M 321.047 17.813 L 321.047 35.391 L 319.969 35.391 L 319.969 9.188 L 321.047 9.188 L 321.047 14.813 L 320.766 14.813 Q 321.61 11.813 324.106 10.313 Q 326.602 8.813 329.578 8.813 Q 332.274 8.813 334.325 9.949 Q 336.375 11.086 337.547 13.102 Q 338.719 15.117 338.719 17.813 L 338.719 35.391 L 337.641 35.391 L 337.641 17.813 Q 337.641 14.25 335.391 12.07 Q 333.141 9.891 329.578 9.891 Q 327.141 9.891 325.207 10.91 Q 323.274 11.93 322.16 13.723 Q 321.047 15.516 321.047 17.813 Z M 88.407 29.391 L 89.485 29.133 Q 90.071 31.922 91.992 33.399 Q 93.914 34.875 97.032 34.875 Q 100.43 34.875 102.551 33.188 Q 104.672 31.5 104.672 28.781 Q 104.672 26.742 103.395 25.36 Q 102.117 23.977 99.61 23.344 L 95.532 22.313 Q 92.508 21.563 90.95 19.852 Q 89.391 18.141 89.391 15.703 Q 89.391 13.641 90.422 12.094 Q 91.453 10.547 93.282 9.68 Q 95.11 8.813 97.5 8.813 Q 99.516 8.813 101.086 9.469 Q 102.657 10.125 103.77 11.438 Q 104.883 12.75 105.516 14.719 L 104.438 15 Q 103.641 12.445 101.918 11.168 Q 100.196 9.891 97.5 9.891 Q 94.36 9.891 92.414 11.485 Q 90.469 13.078 90.469 15.703 Q 90.469 17.742 91.77 19.16 Q 93.071 20.578 95.719 21.258 L 99.844 22.289 Q 102.703 23.016 104.227 24.68 Q 105.75 26.344 105.75 28.781 Q 105.75 30.914 104.637 32.531 Q 103.524 34.149 101.555 35.051 Q 99.586 35.953 97.032 35.953 Q 94.711 35.953 92.93 35.18 Q 91.149 34.406 90.012 32.942 Q 88.875 31.477 88.407 29.391 Z M 374.016 29.391 L 375.094 29.133 Q 375.68 31.922 377.602 33.399 Q 379.524 34.875 382.641 34.875 Q 386.039 34.875 388.16 33.188 Q 390.282 31.5 390.282 28.781 Q 390.282 26.742 389.004 25.36 Q 387.727 23.977 385.219 23.344 L 381.141 22.313 Q 378.117 21.563 376.559 19.852 Q 375 18.141 375 15.703 Q 375 13.641 376.032 12.094 Q 377.063 10.547 378.891 9.68 Q 380.719 8.813 383.11 8.813 Q 385.125 8.813 386.696 9.469 Q 388.266 10.125 389.379 11.438 Q 390.492 12.75 391.125 14.719 L 390.047 15 Q 389.25 12.445 387.528 11.168 Q 385.805 9.891 383.11 9.891 Q 379.969 9.891 378.024 11.485 Q 376.078 13.078 376.078 15.703 Q 376.078 17.742 377.379 19.16 Q 378.68 20.578 381.328 21.258 L 385.453 22.289 Q 388.313 23.016 389.836 24.68 Q 391.36 26.344 391.36 28.781 Q 391.36 30.914 390.246 32.531 Q 389.133 34.149 387.164 35.051 Q 385.196 35.953 382.641 35.953 Q 380.321 35.953 378.539 35.18 Q 376.758 34.406 375.621 32.942 Q 374.485 31.477 374.016 29.391 Z M 153.938 45.188 L 152.86 45.188 L 152.86 9.188 L 153.938 9.188 L 153.938 15.891 L 154.078 15.891 Q 154.758 13.711 156.059 12.117 Q 157.36 10.524 159.129 9.668 Q 160.899 8.813 162.985 8.813 Q 166.055 8.813 168.317 10.594 Q 170.578 12.375 171.821 15.445 Q 173.063 18.516 173.063 22.36 Q 173.063 26.227 171.832 29.309 Q 170.602 32.391 168.34 34.172 Q 166.078 35.953 162.985 35.953 Q 160.875 35.953 159.117 35.086 Q 157.36 34.219 156.071 32.613 Q 154.782 31.008 154.078 28.828 L 153.938 28.828 L 153.938 45.188 Z M 264.469 26.11 L 264.469 24.516 L 265.547 24.516 L 265.547 26.11 Q 265.547 30.141 267.703 32.461 Q 269.86 34.781 273.657 34.781 Q 277.453 34.781 279.61 32.461 Q 281.766 30.141 281.766 26.11 L 281.766 0.469 L 282.844 0.469 L 282.844 26.11 Q 282.844 30.61 280.371 33.235 Q 277.899 35.86 273.657 35.86 Q 269.414 35.86 266.942 33.235 Q 264.469 30.61 264.469 26.11 Z M 134.344 35.953 Q 131.25 35.953 128.789 34.16 Q 126.328 32.367 124.899 29.297 Q 123.469 26.227 123.469 22.36 Q 123.469 18.492 124.899 15.434 Q 126.328 12.375 128.789 10.594 Q 131.25 8.813 134.344 8.813 Q 137.414 8.813 139.864 10.594 Q 142.313 12.375 143.742 15.445 Q 145.172 18.516 145.172 22.36 Q 145.172 26.227 143.754 29.297 Q 142.336 32.367 139.887 34.16 Q 137.438 35.953 134.344 35.953 Z M 301.453 35.953 Q 298.36 35.953 295.899 34.16 Q 293.438 32.367 292.008 29.297 Q 290.578 26.227 290.578 22.36 Q 290.578 18.492 292.008 15.434 Q 293.438 12.375 295.899 10.594 Q 298.36 8.813 301.453 8.813 Q 304.524 8.813 306.973 10.594 Q 309.422 12.375 310.852 15.445 Q 312.282 18.516 312.282 22.36 Q 312.282 26.227 310.864 29.297 Q 309.446 32.367 306.996 34.16 Q 304.547 35.953 301.453 35.953 Z M 112.969 30.399 L 112.969 2.953 L 114.047 2.953 L 114.047 30.399 Q 114.047 32.742 115.231 33.856 Q 116.414 34.969 118.43 34.453 Q 118.617 34.406 118.828 34.348 Q 119.039 34.289 119.227 34.242 L 119.485 35.297 Q 119.274 35.344 119.051 35.403 Q 118.828 35.461 118.617 35.508 Q 115.992 36.141 114.481 34.629 Q 112.969 33.117 112.969 30.399 Z M 64.969 35.391 L 63.891 35.391 L 63.891 9.188 L 64.969 9.188 L 64.969 13.36 L 65.11 13.36 Q 66.047 11.32 68.145 10.09 Q 70.242 8.86 72.938 8.86 L 73.219 8.86 L 73.5 8.86 L 73.5 9.938 L 73.266 9.938 L 72.938 9.938 Q 70.641 9.938 68.836 10.957 Q 67.032 11.977 66 13.746 Q 64.969 15.516 64.969 17.813 L 64.969 35.391 Z M 237.328 35.391 L 236.25 35.391 L 236.25 9.188 L 237.328 9.188 L 237.328 13.36 L 237.469 13.36 Q 238.407 11.32 240.504 10.09 Q 242.602 8.86 245.297 8.86 L 245.578 8.86 L 245.86 8.86 L 245.86 9.938 L 245.625 9.938 L 245.297 9.938 Q 243 9.938 241.196 10.957 Q 239.391 11.977 238.36 13.746 Q 237.328 15.516 237.328 17.813 L 237.328 35.391 Z M 134.344 34.875 Q 137.133 34.875 139.336 33.235 Q 141.539 31.594 142.817 28.758 Q 144.094 25.922 144.094 22.36 Q 144.094 18.82 142.805 15.996 Q 141.516 13.172 139.313 11.531 Q 137.11 9.891 134.344 9.891 Q 131.578 9.891 129.364 11.543 Q 127.149 13.195 125.848 16.008 Q 124.547 18.82 124.547 22.36 Q 124.547 25.922 125.836 28.758 Q 127.125 31.594 129.34 33.235 Q 131.555 34.875 134.344 34.875 Z M 301.453 34.875 Q 304.242 34.875 306.446 33.235 Q 308.649 31.594 309.926 28.758 Q 311.203 25.922 311.203 22.36 Q 311.203 18.82 309.914 15.996 Q 308.625 13.172 306.422 11.531 Q 304.219 9.891 301.453 9.891 Q 298.688 9.891 296.473 11.543 Q 294.258 13.195 292.957 16.008 Q 291.657 18.82 291.657 22.36 Q 291.657 25.922 292.946 28.758 Q 294.235 31.594 296.45 33.235 Q 298.664 34.875 301.453 34.875 Z M 162.985 34.875 Q 165.75 34.875 167.766 33.223 Q 169.782 31.57 170.883 28.735 Q 171.985 25.899 171.985 22.36 Q 171.985 18.82 170.883 15.996 Q 169.782 13.172 167.766 11.531 Q 165.75 9.891 162.985 9.891 Q 160.219 9.891 158.192 11.531 Q 156.164 13.172 155.051 15.996 Q 153.938 18.82 153.938 22.36 Q 153.938 25.899 155.039 28.735 Q 156.141 31.57 158.168 33.223 Q 160.196 34.875 162.985 34.875 Z M 80.578 35.391 L 79.5 35.391 L 79.5 9.188 L 80.578 9.188 L 80.578 35.391 Z M 109.125 9.188 L 119.485 9.188 L 119.485 10.266 L 109.125 10.266 L 109.125 9.188 Z M 80.016 3.211 Q 79.571 3.211 79.242 2.883 Q 78.914 2.555 78.914 2.11 Q 78.914 1.641 79.242 1.324 Q 79.571 1.008 80.016 1.008 Q 80.485 1.008 80.801 1.324 Q 81.117 1.641 81.117 2.11 Q 81.117 2.555 80.801 2.883 Q 80.485 3.211 80.016 3.211 Z"/></g></svg>