<svg xmlns="http://www.w3.org/2000/svg" viewBox="0 200 1600 400">
  <style>
    path { fill: #ffffff; }
    line { stroke: red; stroke-width: 1; }
  </style>

  <!-- Hairlines (debug)
  <line x1="0"   y1="400" x2="1600" y2="400" />
  <line x1="600" y1="0"   x2="600"  y2="800" /> -->
  
  <!-- Standard: keySplines="0.42 0 0.58 1" Punchier: keySplines="0.7 0 0.3 1" Very Punchy: keySplines="0.9 0 0.1 1"-->
  
  <g id="all-group">

      <animateTransform
        attributeName="transform"
        attributeType="XML"
        type="translate"
        from="0,0" to="-220,0"
        begin="7s" dur="0.5s"
        fill="freeze" 
        calcMode="spline"
        keySplines="0.9 0 0.1 1"
      />

    <g id="T-group">
      <!-- TL: "Chris" h=120.234 w=370.156 -->
      <path id="TL" aria-label="Chris"
        d="m 271.5625,353.23437 c 25,0 42.5,-16.875 46.17187,-38.125 h -11.09375 c -3.28125,15.85938 -16.875,27.73438 -35.07812,27.73438 -21.875,0 -39.6875,-17.26563 -39.6875,-49.29688 0,-31.95312 17.8125,-49.45312 39.6875,-49.45312 18.20312,0 31.79687,11.79687 35.07812,27.73437 h 11.09375 c -3.75,-21.48437 -21.32812,-38.125 -46.17187,-38.125 -29.45313,0 -50.46875,23.28125 -50.46875,59.84375 0,36.48438 21.01562,59.6875 50.46875,59.6875 z m 79.76562,-56.01562 c 0,-15 10.3125,-24.375 24.14063,-24.375 13.4375,0 22.10937,8.82812 22.10937,23.125 v 55.70312 h 10.625 V 295.1875 c 0,-20.70313 -12.1875,-32.03125 -29.92187,-32.03125 -11.71875,0 -21.5625,4.92187 -26.95313,16.5625 v -44.45313 h -10.625 v 116.40625 h 10.625 z m 83.59375,54.45312 h 10.625 v -56.01562 c 0,-12.89063 9.84375,-22.26563 23.35938,-22.26563 2.8125,0 5.46875,0.39063 6.25,0.54688 v -10.625 c -1.40625,-0.0781 -3.67188,-0.15625 -5.39063,-0.15625 -10.85937,0 -20.23437,5.85937 -23.75,14.76562 h -0.78125 v -13.59375 h -10.3125 z m 58.51563,0 h 10.625 v -87.34375 h -10.625 z M 498.75,248.15625 c 4.29687,0 7.8125,-3.28125 7.8125,-7.42188 0,-4.14062 -3.51563,-7.42187 -7.8125,-7.42187 -4.21875,0 -7.73438,3.28125 -7.73438,7.42187 0,4.14063 3.51563,7.42188 7.73438,7.42188 z m 59.84375,105.39062 c 19.29687,0 32.65625,-10.70312 32.65625,-25.625 0,-11.5625 -7.26563,-19.375 -22.10938,-22.96875 L 555.78125,301.75 c -10.78125,-2.57813 -15.625,-7.1875 -15.625,-14.53125 0,-8.67188 8.35937,-14.84375 19.92187,-14.84375 11.48438,0 17.34375,5.9375 20.07813,13.90625 l 9.6875,-2.5 c -4.0625,-12.57813 -13.35938,-20.625 -29.84375,-20.625 -17.65625,0 -30.54688,10.07812 -30.54688,24.6875 0,11.79687 7.42188,19.60937 22.42188,23.20312 l 14.21875,3.4375 c 9.45312,2.26563 14.21875,7.03125 14.21875,14.0625 0,8.82813 -8.67188,15.54688 -21.875,15.54688 -11.5625,0 -19.21875,-5.07813 -21.71875,-15.625 l -10.15625,2.42187 c 3.125,14.6875 14.84375,22.65625 32.03125,22.65625 z">
      </path>
      <!-- TR: "topher" 120.234-->
      <path id="TR" aria-label="topher" opacity="1"
        d="m 642.89062,264.32812 h -17.96875 v -20.78125 h -10.625 v 20.78125 h -12.96875 v 9.21875 h 12.96875 V 331.75 c 0,13.59375 8.35938,21.71875 22.26563,20.78125 2.73437,-0.0781 5.70312,-0.54688 7.96875,-1.25 l -2.1875,-9.14063 c -1.875,0.39063 -4.21875,0.78125 -5.70313,0.85938 -7.96875,0.78125 -11.71875,-3.28125 -11.71875,-11.95313 v -57.5 h 17.96875 z m 50.9375,89.21875 c 22.73438,0 38.59375,-18.51562 38.59375,-45.07812 0,-26.79688 -15.9375,-45.3125 -38.59375,-45.3125 -22.73437,0 -38.59375,18.51562 -38.59375,45.3125 0,26.5625 15.85938,45.07812 38.59375,45.07812 z m 0,-9.60937 c -17.8125,0 -27.89062,-16.09375 -27.89062,-35.46875 0,-19.45313 10.07812,-35.70313 27.89062,-35.70313 17.89063,0 27.96875,16.25 27.96875,35.70313 0,19.375 -10.07812,35.46875 -27.96875,35.46875 z m 60.78125,40.39062 h 10.625 v -48.98437 h 0.85938 c 3.4375,8.125 11.01562,18.20312 26.79687,18.20312 21.40625,0 35.85938,-18.125 35.85938,-45.3125 0,-26.95312 -14.53125,-45.07812 -35.85938,-45.07812 -16.01562,0 -23.35937,10 -26.79687,17.96875 h -1.17188 v -16.79688 h -10.3125 z m 36.875,-40.39062 c -16.71875,0 -26.40625,-14.92188 -26.40625,-35.78125 0,-20.78125 9.53125,-35.39063 26.40625,-35.39063 17.1875,0 26.5625,15.39063 26.5625,35.39063 0,20.07812 -9.53125,35.78125 -26.5625,35.78125 z m 70.07813,-46.71875 c 0,-15 10.3125,-24.375 24.14062,-24.375 13.4375,0 22.10938,8.82812 22.10938,23.125 v 55.70312 h 10.625 V 295.1875 c 0,-20.70313 -12.1875,-32.03125 -29.92188,-32.03125 -11.71875,0 -21.5625,4.92187 -26.95312,16.5625 v -44.45313 h -10.625 v 116.40625 h 10.625 z m 118.98437,56.32812 C 998.125,353.54687 1010,344.01562 1013.9844,333 l -10.0782,-3.20313 c -3.2031,7.65625 -11.01558,14.21875 -23.2812,14.21875 -17.65625,0 -28.82813,-12.96875 -29.29688,-32.8125 h 64.76558 v -4.60937 c 0,-29.6875 -18.04683,-43.4375 -37.18745,-43.4375 -22.8125,0 -38.28125,18.98437 -38.28125,45.39062 0,26.48438 15.46875,45 39.92187,45 z M 951.32812,302.0625 c 0.9375,-16.09375 11.79688,-29.375 27.57813,-29.375 15.625,0 25.39065,12.42187 26.48435,29.375 z m 86.56248,49.60937 h 10.625 v -56.01562 c 0,-12.89063 9.8438,-22.26563 23.3594,-22.26563 2.8125,0 5.4688,0.39063 6.25,0.54688 v -10.625 c -1.4062,-0.0781 -3.6719,-0.15625 -5.3906,-0.15625 -10.8594,0 -20.2344,5.85937 -23.75,14.76562 h -0.7813 v -13.59375 h -10.3125 z">
        <animate attributeName="opacity" from="1" to="0" begin="2s" dur="1.5s" fill="freeze"/>
      </path> 
      <animateTransform
        attributeName="transform"
        attributeType="XML"
        type="translate"
        from="0,0" to="0,180"
        begin="6.5s" dur="0.5s"
        fill="freeze" 
        calcMode="spline"
        keySplines="0.9 0 0.1 1"
      />
    </g>
    
    <!-- Bottom Group -->
    <g id="B-group">
      <!-- BL: "Jones" -->
      <path id="BL" aria-label="Jones"
        d="m 187.73437,537.23437 c 20,0 33.35938,-12.5 33.35938,-34.0625 V 419.26562 H 210 v 83.90625 c 0,15.46875 -8.67188,24.14063 -22.26563,24.14063 -13.59375,0 -22.26562,-8.67188 -22.26562,-24.14063 v -5.9375 H 154.375 v 5.9375 c 0,21.5625 13.4375,34.0625 33.35937,34.0625 z m 95.39063,0.3125 c 22.73437,0 38.59375,-18.51562 38.59375,-45.07812 0,-26.79688 -15.9375,-45.3125 -38.59375,-45.3125 -22.73438,0 -38.59375,18.51562 -38.59375,45.3125 0,26.5625 15.85937,45.07812 38.59375,45.07812 z m 0,-9.60937 c -17.8125,0 -27.89063,-16.09375 -27.89063,-35.46875 0,-19.45313 10.07813,-35.70313 27.89063,-35.70313 17.89062,0 27.96875,16.25 27.96875,35.70313 0,19.375 -10.07813,35.46875 -27.96875,35.46875 z m 71.40625,-46.71875 c 0,-15 10.3125,-24.375 24.14062,-24.375 13.4375,0 22.10938,8.82812 22.10938,23.125 v 55.70312 h 10.54687 V 479.1875 c 0,-20.70313 -12.10937,-32.03125 -29.84375,-32.03125 -11.95312,0 -21.95312,5.15625 -27.26562,17.26562 l -0.0781,-16.09375 h -10.23437 v 87.34375 h 10.625 z m 118.90625,56.32812 c 17.57812,0 29.45312,-9.53125 33.4375,-20.54687 l -10.07813,-3.20313 c -3.20312,7.65625 -11.01562,14.21875 -23.28125,14.21875 -17.65625,0 -28.82812,-12.96875 -29.29687,-32.8125 h 64.76562 v -4.60937 c 0,-29.6875 -18.04687,-43.4375 -37.1875,-43.4375 -22.8125,0 -38.28125,18.98437 -38.28125,45.39062 0,26.48438 15.46875,45 39.92188,45 z M 444.21875,486.0625 c 0.9375,-16.09375 11.79687,-29.375 27.57812,-29.375 15.625,0 25.39063,12.42187 26.48438,29.375 z m 114.375,51.48437 c 19.29687,0 32.65625,-10.70312 32.65625,-25.625 0,-11.5625 -7.26563,-19.375 -22.10938,-22.96875 L 555.78125,485.75 c -10.78125,-2.57813 -15.625,-7.1875 -15.625,-14.53125 0,-8.67188 8.35937,-14.84375 19.92187,-14.84375 11.48438,0 17.34375,5.9375 20.07813,13.90625 l 9.6875,-2.5 c -4.0625,-12.57813 -13.35938,-20.625 -29.84375,-20.625 -17.65625,0 -30.54688,10.07812 -30.54688,24.6875 0,11.79687 7.42188,19.60937 22.42188,23.20312 l 14.21875,3.4375 c 9.45312,2.26563 14.21875,7.03125 14.21875,14.0625 0,8.82813 -8.67188,15.54688 -21.875,15.54688 -11.5625,0 -19.21875,-5.07813 -21.71875,-15.625 l -10.15625,2.42187 c 3.125,14.6875 14.84375,22.65625 32.03125,22.65625 z" />

      <!-- BR1: ellipsis (visible initially, fades out) -->
      <path id="BR1" aria-label="…" opacity="1"
        d="m 667.73437,536.60937 c 4.6875,0 8.4375,-3.75 8.4375,-8.4375 0,-4.6875 -3.75,-8.4375 -8.4375,-8.4375 -4.6875,0 -8.4375,3.75 -8.4375,8.4375 0,4.6875 3.75,8.4375 8.4375,8.4375 z m -45.15625,0 c 4.6875,0 8.4375,-3.75 8.4375,-8.4375 0,-4.6875 -3.75,-8.4375 -8.4375,-8.4375 -4.6875,0 -8.4375,3.75 -8.4375,8.4375 0,4.6875 3.75,8.4375 8.4375,8.4375 z m 90.3125,0 c 4.6875,0 8.4375,-3.75 8.4375,-8.4375 0,-4.6875 -3.75,-8.4375 -8.4375,-8.4375 -4.6875,0 -8.4375,3.75 -8.4375,8.4375 0,4.6875 3.75,8.4375 8.4375,8.4375 z">
        <animate attributeName="opacity" from="1" to="0" begin="2.5s" dur="1.5s" fill="freeze"/>
      </path>

      <!-- BR2: ".org.uk" (co-located, initially hidden, fades in) -->
      <path id="BR2" aria-label=".org.uk" opacity="0"
        d="m 622.57812,536.60937 c 4.6875,0 8.4375,-3.75 8.4375,-8.4375 0,-4.6875 -3.75,-8.4375 -8.4375,-8.4375 -4.6875,0 -8.4375,3.75 -8.4375,8.4375 0,4.6875 3.75,8.4375 8.4375,8.4375 z m 70,0.9375 c 22.73438,0 38.59375,-18.51562 38.59375,-45.07812 0,-26.79688 -15.9375,-45.3125 -38.59375,-45.3125 -22.73437,0 -38.59375,18.51562 -38.59375,45.3125 0,26.5625 15.85938,45.07812 38.59375,45.07812 z m 0,-9.60937 c -17.8125,0 -27.89062,-16.09375 -27.89062,-35.46875 0,-19.45313 10.07812,-35.70313 27.89062,-35.70313 17.89063,0 27.96875,16.25 27.96875,35.70313 0,19.375 -10.07812,35.46875 -27.96875,35.46875 z m 60.78125,7.73437 h 10.625 v -56.01562 c 0,-12.89063 9.84375,-22.26563 23.35938,-22.26563 2.8125,0 5.46875,0.39063 6.25,0.54688 v -10.625 c -1.40625,-0.0781 -3.67188,-0.15625 -5.39063,-0.15625 -10.85937,0 -20.23437,5.85937 -23.75,14.76562 h -0.78125 v -13.59375 h -10.3125 z m 88.28125,34.53125 c 20.9375,0 36.25,-10.15625 36.25,-32.42187 v -89.45313 h -10.3125 V 465.125 h -1.09375 c -3.51562,-7.96875 -10.85937,-17.96875 -26.79687,-17.96875 -21.40625,0 -36.01563,18.04687 -36.01563,44.6875 0,26.79687 15,42.89062 35.78125,42.89062 15.54688,0 23.28125,-8.82812 26.79688,-17.03125 h 1.01562 v 19.60938 c 0,16.09375 -10.23437,23.51562 -25.625,23.51562 -14.60937,0 -21.71875,-6.875 -25.46875,-13.67187 l -8.75,5.3125 c 5.07813,10.3125 16.40625,17.73437 34.21875,17.73437 z m -0.625,-45 c -17.03125,0 -26.64062,-13.75 -26.64062,-33.59375 0,-19.45312 9.375,-34.84375 26.64062,-34.84375 16.95313,0 26.40625,14.60938 26.40625,34.84375 0,20.85938 -9.76562,33.59375 -26.40625,33.59375 z m 72.8125,11.40625 c 4.6875,0 8.4375,-3.75 8.4375,-8.4375 0,-4.6875 -3.75,-8.4375 -8.4375,-8.4375 -4.6875,0 -8.4375,3.75 -8.4375,8.4375 0,4.6875 3.75,8.4375 8.4375,8.4375 z m 65.85938,0.23438 c 11.71875,0 21.875,-5 27.2656,-17.34375 v 16.17187 h 10.3125 v -87.34375 h -10.625 v 54.45313 c 0,15 -10.3906,24.375 -24.1406,24.375 -13.4375,0 -22.10938,-8.82813 -22.10938,-23.125 v -55.70313 h -10.625 v 56.48438 c 0,20.70312 12.1875,32.03125 29.92188,32.03125 z m 64.2969,-1.17188 h 10.625 v -33.51562 l 9.9219,-9.375 33.75,42.89062 h 13.5937 l -39.375,-49.76562 37.1094,-37.57813 H 1096.25 l -40.3906,40.9375 h -1.25 v -70 h -10.625 z">
        <animate attributeName="opacity" from="0" to="1" begin="4s" dur="1.5s" fill="freeze"/>
      </path>
      <path id="BL" d="M10 10 ..." fill="#fff"/>
      <animateTransform
        attributeName="transform"
        attributeType="XML"
        type="translate"
        from="0,0" to="450,0"
        begin="5.5s" dur="1s"
        fill="freeze" 
        calcMode="spline"
        keySplines="0.7 0 0.3 1"
      />
    </g>
  </g>

</svg>